<svg width="208" height="44" viewBox="0 0 208 44" fill="none" xmlns="http://www.w3.org/2000/svg">
<path d="M0 22C0 9.84974 9.84974 0 22 0C34.1503 0 44 9.84974 44 22C44 34.1503 34.1503 44 22 44C9.84974 44 0 34.1503 0 22Z" fill="white"/>
<path d="M26.8478 21.6163L29.8659 29.909L25.2124 22.4027L26.8478 21.6163Z" fill="url(#paint0_linear_2275_5827)"/>
<path d="M21.0372 17.2737C21.0742 17.1965 21.1324 17.1302 21.2058 17.0819C21.2792 17.0336 21.365 17.005 21.4541 16.9993C21.5432 16.9936 21.6323 17.0109 21.7119 17.0494C21.7915 17.0879 21.8586 17.1461 21.9062 17.2179L23.655 19.8675C21.5568 20.8807 19.6315 22.1887 17.944 23.7472L21.0372 17.2737ZM21.1916 11C20.7957 11.0004 20.4098 11.1182 20.0878 11.3368C19.7657 11.5555 19.5235 11.8641 19.395 12.2197L12.7126 30.013C12.5 30.4669 12.3857 30.9567 12.3765 31.4533C12.3533 32.0467 12.5755 32.6251 12.9955 33.0649C16.2622 35.3006 24.2465 30.3764 24.2465 30.3764L23.8367 29.8301C23.5416 29.9702 17.1666 33.6358 15.1705 32.106C13.8794 31.1121 16.8387 27.7813 16.8387 27.7813C19.2474 25.639 26.147 19.8766 31.0669 19.5288C31.0669 19.5288 33.0411 19.3692 32.7351 21.0054C32.7351 21.0054 32.7282 22.5495 29.5736 25.7026L29.8796 26.3007C29.8796 26.3007 35.6507 21.2688 34.115 18.2948C34.115 18.2948 32.9318 16.1253 27.5324 18.0872C27.5324 18.0872 26.8301 18.3636 25.7808 18.8411L22.9732 12.1782C22.8383 11.8326 22.5953 11.5345 22.2768 11.3239C21.9583 11.1133 21.5797 11.0003 21.1916 11Z" fill="url(#paint1_linear_2275_5827)"/>
<path d="M55.3468 16.7969C55.3468 14.7045 55.974 13.0109 57.2286 11.7161C57.8199 11.0883 58.5375 10.5929 59.3341 10.2625C60.1307 9.93208 60.9882 9.77413 61.8503 9.79907C62.6966 9.79317 63.5357 9.95537 64.3188 10.2762C65.1019 10.5971 65.8136 11.0703 66.4125 11.6683C67.0371 12.2768 67.5281 13.0087 67.8542 13.8175C68.1803 14.6262 68.3343 15.4941 68.3065 16.3656V27.5096H67.2584V16.9899H56.3957V27.4613H55.3229L55.3468 16.7969ZM67.2345 15.9101C67.2137 15.2137 67.0484 14.5292 66.7491 13.9001C66.4497 13.271 66.0229 12.711 65.4957 12.2556C64.5106 11.3183 63.2102 10.7838 61.8507 10.7576H61.5647C60.2789 10.866 59.0745 11.4313 58.1697 12.3512C57.6703 12.804 57.2666 13.3522 56.9823 13.9633C56.6979 14.5745 56.5387 15.2364 56.5139 15.9101H67.2345Z" fill="white"/>
<path fill-rule="evenodd" clip-rule="evenodd" d="M65.4957 12.2556C64.5106 11.3183 63.2102 10.7838 61.8507 10.7576H61.5647C60.2789 10.866 59.0745 11.4313 58.1697 12.3512C57.6703 12.804 57.2666 13.3522 56.9823 13.9633C56.8064 14.3413 56.6784 14.7387 56.6005 15.1462C56.5524 15.3977 56.5234 15.653 56.5139 15.9101H67.2345C67.2268 15.6531 67.1995 15.3977 67.153 15.1462C67.0734 14.7161 66.9379 14.2971 66.7491 13.9001C66.4497 13.271 66.0229 12.711 65.4957 12.2556ZM66.3737 15.1462C66.3044 14.8301 66.1991 14.5221 66.0593 14.2283C65.8054 13.6948 65.4435 13.2199 64.9963 12.8336L64.9824 12.8216L64.9691 12.809C64.1241 12.0049 63.0091 11.5458 61.8431 11.5215H61.5981C60.5058 11.6209 59.4838 12.1045 58.7143 12.8869L58.699 12.9024L58.6828 12.9171C58.259 13.3015 57.9162 13.7668 57.6749 14.2856C57.5463 14.5619 57.4479 14.8504 57.3808 15.1462H66.3737ZM55.3468 16.7969C55.3468 14.7045 55.974 13.0109 57.2286 11.7161C57.8199 11.0883 58.5375 10.5929 59.3341 10.2625C60.1307 9.93208 60.9882 9.77413 61.8503 9.79907C62.6966 9.79317 63.5357 9.95537 64.3188 10.2762C65.1019 10.5971 65.8136 11.0703 66.4125 11.6683C67.0371 12.2768 67.5281 13.0087 67.8542 13.8175C68.1803 14.6262 68.3343 15.4941 68.3065 16.3656V27.5096H67.2584V16.9899H56.3957V27.4613H55.3229L55.3468 16.7969ZM57.1596 17.7538V28.2252H54.5573L54.5829 16.7969C54.5829 16.7966 54.5829 16.7972 54.5829 16.7969C54.5831 14.5427 55.2642 12.6479 56.6762 11.1884C57.3408 10.484 58.1468 9.92796 59.0414 9.5569C59.9334 9.1869 60.8934 9.00913 61.8587 9.03511C62.8014 9.03035 63.7359 9.2119 64.6084 9.56937C65.4837 9.92798 66.2791 10.4565 66.9489 11.1244C67.6479 11.8063 68.1975 12.6261 68.5627 13.5318C68.9269 14.4351 69.0997 15.4041 69.0703 16.3775V28.2735H66.4945V17.7538H57.1596Z" fill="white"/>
<path d="M70.9259 15.7181H74.7843C76.8175 15.7181 78.3779 16.2773 79.4655 17.3956C80.0043 17.95 80.4264 18.6068 80.7067 19.3272C80.987 20.0476 81.1199 20.8169 81.0974 21.5896C81.113 22.3666 80.9653 23.1381 80.6638 23.8544C80.3623 24.5706 79.9138 25.2156 79.3473 25.7475C78.7716 26.3042 78.0906 26.7404 77.3441 27.0306C76.5977 27.3207 75.8009 27.4589 75.0003 27.4372H72.0457V34.2185H70.9259V15.7181ZM74.8569 26.3596C76.4603 26.3596 77.7028 25.9123 78.5844 25.0177C79.4689 24.1161 79.9615 22.9017 79.955 21.6387C79.9883 20.9888 79.8822 20.3393 79.6439 19.7337C79.4055 19.1282 79.0404 18.5806 78.5731 18.1277C77.6194 17.1931 76.3089 16.7258 74.6417 16.7258H72.0457V26.3596H74.8569Z" fill="white"/>
<path fill-rule="evenodd" clip-rule="evenodd" d="M70.162 14.9543H74.7843C76.9583 14.9543 78.7417 15.5557 80.0132 16.8631C80.6232 17.4907 81.1012 18.2345 81.4186 19.0502C81.7337 19.86 81.8843 20.7245 81.8615 21.5931C81.8765 22.4706 81.7084 23.3417 81.3679 24.1507C81.0256 24.9638 80.5168 25.6962 79.8743 26.3006C79.2264 26.926 78.4603 27.4163 77.6209 27.7425C76.783 28.0682 75.8888 28.2241 74.9903 28.2011H72.8096V34.9824H70.162V14.9543ZM72.0457 27.4372H75.0003C75.8009 27.4589 76.5977 27.3207 77.3441 27.0306C78.0906 26.7404 78.7716 26.3042 79.3473 25.7475C79.9138 25.2156 80.3623 24.5706 80.6638 23.8544C80.9653 23.1381 81.113 22.3666 81.0974 21.5896C81.1199 20.8169 80.987 20.0476 80.7067 19.3272C80.4264 18.6068 80.0043 17.95 79.4655 17.3956C78.3779 16.2773 76.8175 15.7181 74.7843 15.7181H70.9259V34.2185H72.0457V27.4372ZM79.955 21.6387C79.9883 20.9888 79.8822 20.3393 79.6439 19.7337C79.4055 19.1282 79.0404 18.5806 78.5731 18.1277C77.6194 17.1931 76.3089 16.7258 74.6417 16.7258H72.0457V26.3596H74.8569C76.4603 26.3596 77.7028 25.9123 78.5844 25.0177C79.4689 24.1161 79.9615 22.9017 79.955 21.6387ZM78.0397 24.4822C78.7828 23.7245 79.1966 22.704 79.1911 21.6427L79.191 21.6212L79.1921 21.5997C79.2198 21.0585 79.1315 20.5177 78.933 20.0135C78.7346 19.5093 78.4306 19.0533 78.0415 18.6762L78.0384 18.6733C77.261 17.9114 76.1613 17.4897 74.6417 17.4897H72.8096V25.5957H74.8569C76.3148 25.5957 77.3386 25.1931 78.0397 24.4822Z" fill="white"/>
<path d="M83.0765 15.7181H86.9348C88.9681 15.7181 90.5285 16.2773 91.6161 17.3956C92.1549 17.95 92.577 18.6068 92.8573 19.3272C93.1376 20.0476 93.2705 20.8169 93.248 21.5896C93.2636 22.3666 93.1159 23.1381 92.8144 23.8544C92.5129 24.5706 92.0644 25.2156 91.4979 25.7475C90.9221 26.3042 90.2411 26.7403 89.4947 27.0305C88.7482 27.3206 87.9514 27.4589 87.1509 27.4372H84.1962V34.2185H83.0765V15.7181ZM87.0066 26.3596C88.6109 26.3596 89.8537 25.9123 90.735 25.0177C91.6195 24.1161 92.1121 22.9017 92.1056 21.6387C92.1388 20.9886 92.0325 20.3388 91.7938 19.733C91.5552 19.1273 91.1897 18.5797 90.7219 18.1268C89.7682 17.1922 88.4577 16.7249 86.7905 16.7249H84.1962V26.3596H87.0066Z" fill="white"/>
<path fill-rule="evenodd" clip-rule="evenodd" d="M82.3126 14.9543H86.9348C89.1089 14.9543 90.8923 15.5557 92.1637 16.8631C92.7738 17.4907 93.2518 18.2345 93.5692 19.0502C93.8843 19.86 94.0348 20.7245 94.0121 21.5931C94.0271 22.4706 93.859 23.3417 93.5185 24.1507C93.1762 24.9638 92.6674 25.6962 92.0249 26.3006C91.3769 26.926 90.6109 27.4162 89.7714 27.7424C88.9336 28.0681 88.0394 28.224 87.1409 28.2011H84.9601V34.9824H82.3126V14.9543ZM84.1962 27.4372H87.1509C87.9514 27.4589 88.7482 27.3206 89.4947 27.0305C90.2411 26.7403 90.9221 26.3042 91.4979 25.7475C92.0644 25.2156 92.5129 24.5706 92.8144 23.8544C93.1159 23.1381 93.2636 22.3666 93.248 21.5896C93.2705 20.8169 93.1376 20.0476 92.8573 19.3272C92.577 18.6068 92.1549 17.95 91.6161 17.3956C90.5285 16.2773 88.9681 15.7181 86.9348 15.7181H83.0765V34.2185H84.1962V27.4372ZM92.1056 21.6387C92.1388 20.9886 92.0325 20.3388 91.7938 19.733C91.5552 19.1273 91.1897 18.5797 90.7219 18.1268C89.7682 17.1922 88.4577 16.7249 86.7905 16.7249H84.1962V26.3596H87.0066C88.6109 26.3596 89.8537 25.9123 90.735 25.0177C91.6195 24.1161 92.1121 22.9017 92.1056 21.6387ZM90.1903 24.4821C90.9334 23.7244 91.3472 22.7039 91.3417 21.6427L91.3416 21.6212L91.3427 21.5998C91.3703 21.0584 91.2818 20.5174 91.0831 20.0131C90.8844 19.5087 90.5801 19.0527 90.1906 18.6756L90.1873 18.6724C89.4098 17.9105 88.3102 17.4888 86.7905 17.4888H84.9601V25.5957H87.0066C88.4657 25.5957 89.4897 25.193 90.1903 24.4821Z" fill="white"/>
<path d="M105.279 15.7421V16.8684L96.6804 26.4065H105.328V27.485H95.1794V26.3596L103.827 16.7962H95.1794V15.7181L105.279 15.7421Z" fill="white"/>
<path fill-rule="evenodd" clip-rule="evenodd" d="M106.043 14.98V17.1618L98.3974 25.6426H106.092V28.2489H94.4155V26.0654L102.107 17.5601H94.4155V14.9524L106.043 14.98ZM103.827 16.7962L95.1794 26.3596V27.485H105.328V26.4065H96.6804L105.279 16.8684V15.7421L95.1794 15.7181V16.7962H103.827Z" fill="white"/>
<path d="M109.019 11.3794C108.929 11.3851 108.839 11.3696 108.756 11.3342C108.673 11.2988 108.6 11.2445 108.541 11.1755C108.432 11.0446 108.373 10.8789 108.374 10.7082V10.6365C108.391 10.4913 108.449 10.3539 108.541 10.2409C108.598 10.177 108.668 10.1259 108.746 10.0907C108.824 10.0556 108.908 10.0373 108.994 10.037H109.042C109.133 10.0294 109.226 10.0439 109.311 10.0794C109.396 10.1148 109.471 10.1702 109.53 10.2409C109.632 10.3748 109.687 10.5395 109.684 10.7082V10.7799C109.668 10.9249 109.611 11.0622 109.519 11.1755C109.462 11.2396 109.392 11.2909 109.314 11.326C109.235 11.3612 109.15 11.3793 109.065 11.3794H109.019ZM108.472 16.0307H109.591V27.4633H108.471L108.472 16.0307Z" fill="white"/>
<path fill-rule="evenodd" clip-rule="evenodd" d="M108.994 10.037H109.042C109.133 10.0294 109.226 10.0439 109.311 10.0794C109.396 10.1148 109.471 10.1702 109.53 10.2409C109.632 10.3748 109.687 10.5395 109.684 10.7082V10.7799C109.668 10.9249 109.611 11.0622 109.519 11.1755C109.462 11.2396 109.392 11.2909 109.314 11.326C109.235 11.3612 109.15 11.3793 109.065 11.3794H109.019C108.929 11.3851 108.839 11.3696 108.756 11.3342C108.673 11.2988 108.6 11.2445 108.541 11.1755C108.432 11.0446 108.373 10.8789 108.374 10.7082V10.6365C108.391 10.4913 108.449 10.3539 108.541 10.2409C108.598 10.177 108.668 10.1259 108.746 10.0907C108.824 10.0556 108.908 10.0373 108.994 10.037ZM107.61 10.705V10.5936L107.615 10.5511C107.648 10.2595 107.764 9.98362 107.95 9.75668L107.96 9.74459L107.971 9.73292C108.099 9.58889 108.256 9.4735 108.432 9.39427C108.608 9.31505 108.798 9.27378 108.991 9.27315L108.994 9.27314L109.016 9.27314C109.218 9.26213 109.419 9.2967 109.605 9.37447C109.803 9.45719 109.978 9.58637 110.116 9.75109L110.126 9.76339L110.136 9.77612C110.342 10.0448 110.452 10.3749 110.448 10.7133V10.8221L110.443 10.864C110.411 11.1543 110.296 11.4294 110.112 11.6563L110.101 11.6702L110.089 11.6835C109.961 11.828 109.803 11.9437 109.626 12.0229C109.45 12.1022 109.259 12.1432 109.065 12.1433H109.039C108.839 12.1516 108.64 12.1153 108.457 12.0369C108.264 11.9547 108.093 11.8286 107.958 11.6685L107.955 11.6655C107.73 11.3962 107.608 11.0558 107.61 10.705ZM107.708 15.2668H110.355V28.2271H107.707L107.708 15.2668ZM108.472 16.0307H109.591V27.4633H108.471L108.472 16.0307Z" fill="white"/>
<path d="M113.378 9.7739H114.498V27.4601H113.378V9.7739Z" fill="white"/>
<path fill-rule="evenodd" clip-rule="evenodd" d="M112.615 9.01001H115.262V28.224H112.615V9.01001ZM113.378 27.4601H114.498V9.7739H113.378V27.4601Z" fill="white"/>
<path d="M118.356 9.7739H119.475V27.4601H118.356V9.7739Z" fill="white"/>
<path fill-rule="evenodd" clip-rule="evenodd" d="M117.592 9.01001H120.239V28.224H117.592V9.01001ZM118.356 27.4601H119.475V9.7739H118.356V27.4601Z" fill="white"/>
<path d="M132.381 25.8298C131.837 26.3931 131.183 26.839 130.459 27.1399C129.736 27.4408 128.959 27.5904 128.175 27.5795C127.39 27.5971 126.61 27.4517 125.885 27.1524C125.159 26.8531 124.503 26.4065 123.959 25.8407C123.392 25.2938 122.943 24.6365 122.64 23.9095C122.337 23.1824 122.186 22.4009 122.196 21.6133C122.186 20.8149 122.341 20.023 122.65 19.2871C122.96 18.5511 123.418 17.8867 123.995 17.3354C124.547 16.7796 125.205 16.3396 125.929 16.0411C126.653 15.7427 127.429 15.5919 128.213 15.5974C128.996 15.603 129.77 15.7649 130.49 16.0737C131.21 16.3824 131.861 16.8318 132.405 17.3954C132.961 17.9468 133.4 18.6044 133.696 19.329C133.993 20.0536 134.141 20.8304 134.131 21.6133C134.143 22.3984 133.994 23.1776 133.693 23.9029C133.392 24.6281 132.945 25.2839 132.381 25.8298ZM123.339 21.588V21.6598C123.333 22.3091 123.459 22.9528 123.709 23.5521C123.959 24.1514 124.328 24.6938 124.793 25.1465C125.236 25.6109 125.769 25.9793 126.36 26.2288C126.95 26.4783 127.586 26.6036 128.228 26.5969C128.869 26.5902 129.502 26.4516 130.087 26.1897C130.673 25.9278 131.198 25.5483 131.631 25.0748C132.077 24.6135 132.425 24.0669 132.654 23.4677C132.883 22.8685 132.989 22.2291 132.965 21.588C132.967 20.9569 132.843 20.3316 132.6 19.7492C132.357 19.1668 131.999 18.6391 131.548 18.1974C131.109 17.748 130.584 17.3904 130.005 17.1456C129.426 16.9008 128.804 16.7736 128.176 16.7714C127.547 16.7691 126.924 16.892 126.344 17.1327C125.763 17.3734 125.236 17.7272 124.793 18.1735C124.333 18.6109 123.964 19.1364 123.71 19.7189C123.456 20.3013 123.322 20.9288 123.315 21.5641L123.339 21.588Z" fill="white"/>
<path fill-rule="evenodd" clip-rule="evenodd" d="M131.631 25.0748C132.077 24.6135 132.425 24.0669 132.654 23.4677C132.883 22.8685 132.989 22.2291 132.965 21.588C132.967 20.9569 132.843 20.3316 132.6 19.7492C132.357 19.1668 131.999 18.6391 131.548 18.1974C131.109 17.748 130.584 17.3904 130.005 17.1456C129.426 16.9008 128.804 16.7736 128.176 16.7714C127.547 16.7691 126.924 16.892 126.344 17.1327C125.763 17.3734 125.236 17.7272 124.793 18.1735C124.333 18.6109 123.964 19.1364 123.71 19.7189C123.456 20.3013 123.322 20.9288 123.315 21.5641L123.339 21.588V21.6598C123.333 22.3091 123.459 22.9528 123.709 23.5521C123.959 24.1514 124.328 24.6938 124.793 25.1465C125.236 25.6109 125.769 25.9793 126.36 26.2288C126.95 26.4783 127.586 26.6036 128.228 26.5969C128.869 26.5902 129.502 26.4516 130.087 26.1897C130.673 25.9278 131.198 25.5483 131.631 25.0748ZM124.095 21.263C124.132 20.8364 124.239 20.418 124.411 20.0241C124.624 19.5354 124.933 19.0945 125.319 18.7275L125.328 18.7196L125.336 18.7114C125.707 18.337 126.149 18.0403 126.636 17.8383C127.123 17.6364 127.646 17.5334 128.173 17.5352C128.7 17.5371 129.222 17.6438 129.708 17.8492C130.193 18.0546 130.633 18.3545 131.002 18.7315L131.014 18.743C131.391 19.1133 131.691 19.5556 131.895 20.0437C132.099 20.5318 132.203 21.0559 132.201 21.585L132.201 21.6009L132.201 21.6168C132.222 22.155 132.133 22.6917 131.94 23.1947C131.748 23.6977 131.456 24.1566 131.082 24.5438L131.074 24.5516L131.067 24.5596C130.705 24.9558 130.265 25.2733 129.776 25.4924C129.286 25.7115 128.756 25.8274 128.22 25.8331C127.683 25.8387 127.151 25.7339 126.657 25.5251C126.163 25.3164 125.717 25.0081 125.346 24.6196L125.336 24.609L125.326 24.5988C124.934 24.2182 124.624 23.7621 124.414 23.2581C124.204 22.7541 124.098 22.2128 124.103 21.6668L124.103 21.2716L124.095 21.263ZM132.921 26.37C132.306 27.0039 131.568 27.5058 130.753 27.8452C129.937 28.1844 129.061 28.3539 128.179 28.3435C127.293 28.3615 126.413 28.1964 125.593 27.8586C124.774 27.5208 124.034 27.0176 123.418 26.3806C122.781 25.7632 122.276 25.0224 121.935 24.2034C121.593 23.383 121.422 22.5015 121.432 21.6129C121.423 20.713 121.597 19.8206 121.946 18.991C122.295 18.1614 122.81 17.4123 123.46 16.7899C124.082 16.1654 124.823 15.6707 125.638 15.3349C126.456 14.9977 127.333 14.8273 128.218 14.8336C129.103 14.8399 129.978 15.0228 130.791 15.3716C131.602 15.7193 132.335 16.2249 132.949 16.8589C133.575 17.4813 134.069 18.2228 134.403 19.0396C134.737 19.8558 134.905 20.7305 134.895 21.6122C134.907 22.4981 134.738 23.3773 134.398 24.1957C134.059 25.0134 133.556 25.7533 132.921 26.37ZM132.381 25.8298C131.837 26.3931 131.183 26.839 130.459 27.1399C129.736 27.4408 128.959 27.5904 128.175 27.5795C127.39 27.5971 126.61 27.4517 125.885 27.1524C125.159 26.8531 124.503 26.4065 123.959 25.8407C123.392 25.2938 122.943 24.6365 122.64 23.9095C122.337 23.1824 122.186 22.4009 122.196 21.6133C122.186 20.8149 122.341 20.023 122.65 19.2871C122.96 18.5511 123.418 17.8867 123.995 17.3354C124.547 16.7796 125.205 16.3396 125.929 16.0411C126.653 15.7427 127.429 15.5919 128.213 15.5974C128.996 15.603 129.77 15.7649 130.49 16.0737C131.21 16.3824 131.861 16.8318 132.405 17.3954C132.961 17.9468 133.4 18.6044 133.696 19.329C133.993 20.0536 134.141 20.8304 134.131 21.6133C134.143 22.3984 133.994 23.1776 133.693 23.9029C133.392 24.6281 132.945 25.2839 132.381 25.8298Z" fill="white"/>
<path d="M146.254 20.2453V27.4804H145.134V20.5087C145.143 20.0155 145.047 19.5259 144.855 19.0718C144.662 18.6177 144.376 18.2092 144.015 17.8727C143.301 17.1683 142.349 16.7578 141.347 16.7225H141.227C140.69 16.7171 140.157 16.8253 139.665 17.0401C139.172 17.2549 138.73 17.5713 138.369 17.9688C137.985 18.3565 137.681 18.8168 137.477 19.3229C137.272 19.8289 137.17 20.3706 137.177 20.9164V27.4587H136.057V20.5326C136.045 19.8557 136.187 19.1849 136.472 18.5707C136.757 17.9564 137.177 17.4146 137.701 16.9859C138.728 16.0688 140.062 15.5722 141.439 15.5949H141.629C142.665 15.6973 143.64 16.1348 144.405 16.8411C145.193 17.4826 145.791 18.328 146.132 19.2855C146.179 19.4421 146.215 19.6019 146.239 19.7636C146.263 19.9219 146.275 20.0817 146.275 20.2418L146.254 20.2453Z" fill="white"/>
<path fill-rule="evenodd" clip-rule="evenodd" d="M141.629 15.5949C142.665 15.6973 143.64 16.1348 144.405 16.8411C145.193 17.4826 145.791 18.328 146.132 19.2855C146.179 19.4421 146.215 19.6019 146.239 19.7636C146.263 19.9219 146.275 20.0817 146.275 20.2418L146.254 20.2453V27.4804H145.134V20.5087C145.143 20.0155 145.047 19.5259 144.855 19.0718C144.662 18.6177 144.376 18.2092 144.015 17.8727C143.301 17.1683 142.349 16.7578 141.347 16.7225H141.227C140.69 16.7171 140.157 16.8253 139.665 17.0401C139.172 17.2549 138.73 17.5713 138.369 17.9688C137.985 18.3565 137.681 18.8168 137.477 19.3229C137.272 19.8289 137.17 20.3706 137.177 20.9164V27.4587H136.057V20.5326C136.045 19.8557 136.187 19.1849 136.472 18.5707C136.757 17.9564 137.177 17.4146 137.701 16.9859C138.728 16.0688 140.062 15.5722 141.439 15.5949H141.629ZM141.445 14.831H141.667L141.704 14.8347C142.898 14.9526 144.021 15.4541 144.905 16.2636C145.793 16.9914 146.466 17.9474 146.852 19.029L146.858 19.0474L146.864 19.0662C146.921 19.2571 146.965 19.4519 146.995 19.649L146.995 19.6507C147.024 19.8463 147.039 20.0437 147.039 20.2414L147.039 20.891L147.018 20.8945V28.2443H144.37V20.4954C144.377 20.1092 144.302 19.7259 144.151 19.3703C144 19.0147 143.777 18.6948 143.494 18.4313L143.486 18.424L143.478 18.4164C142.904 17.8496 142.139 17.518 141.333 17.4864H141.219C140.79 17.482 140.364 17.5686 139.97 17.7403C139.576 17.912 139.223 18.1651 138.934 18.4829L138.923 18.4949L138.911 18.5064C138.599 18.8222 138.352 19.1971 138.185 19.6093C138.018 20.0214 137.935 20.4626 137.941 20.9071L137.941 20.9164L137.941 28.2226H135.293V20.5389C135.281 19.749 135.447 18.9663 135.779 18.2495C136.11 17.5356 136.597 16.9053 137.204 16.4052C138.371 15.3686 139.884 14.8069 141.445 14.831Z" fill="white"/>
<path d="M147.992 14.7568H147.301V16.659H147.014V14.7568H146.321V14.5125H147.992V14.7568Z" fill="white"/>
<path d="M150.527 14.5129V16.6594H150.274V15.0819C150.274 15.061 150.275 15.0386 150.276 15.0145C150.276 14.9915 150.279 14.9658 150.282 14.9411L149.549 16.283C149.54 16.3033 149.526 16.3205 149.507 16.3325C149.489 16.3445 149.467 16.3507 149.445 16.3504H149.401C149.379 16.3508 149.357 16.3447 149.339 16.3326C149.32 16.3206 149.306 16.3033 149.297 16.283L148.549 14.9354C148.555 14.9841 148.558 15.0332 148.558 15.0823V16.6594H148.305V14.5129H148.518C148.538 14.5122 148.558 14.5147 148.577 14.5203C148.595 14.5295 148.61 14.5449 148.618 14.5637L149.354 15.8848C149.367 15.9087 149.379 15.9335 149.39 15.9604C149.401 15.9874 149.412 16.0122 149.422 16.0391C149.432 16.0122 149.443 15.9861 149.453 15.9596C149.464 15.9334 149.476 15.9078 149.489 15.883L150.213 14.5633C150.22 14.5443 150.233 14.5287 150.252 14.5198C150.271 14.5145 150.292 14.512 150.312 14.5124L150.527 14.5129Z" fill="white"/>
<defs>
<linearGradient id="paint0_linear_2275_5827" x1="23.3749" y1="11" x2="23.3749" y2="33.6471" gradientUnits="userSpaceOnUse">
<stop stop-color="#0073C0"/>
<stop offset="1" stop-color="#000D15"/>
</linearGradient>
<linearGradient id="paint1_linear_2275_5827" x1="23.3749" y1="11" x2="23.3749" y2="33.6471" gradientUnits="userSpaceOnUse">
<stop stop-color="#0073C0"/>
<stop offset="1" stop-color="#000D15"/>
</linearGradient>
</defs>
</svg>
