<svg width="40" height="41" viewBox="0 0 40 41" fill="none" xmlns="http://www.w3.org/2000/svg">
<rect y="0.5" width="40" height="40" rx="20" fill="#F04248" fill-opacity="0.12"/>
<mask id="mask0_38_2040" style="mask-type:alpha" maskUnits="userSpaceOnUse" x="6" y="7" width="28" height="27">
<rect x="6.7002" y="7.19995" width="26.6" height="26.6" fill="#D9D9D9"/>
</mask>
<g mask="url(#mask0_38_2040)">
<path d="M16.0103 26.0415L20.0003 22.0515L23.9903 26.0415L25.542 24.4898L21.552 20.4998L25.542 16.5098L23.9903 14.9582L20.0003 18.9482L16.0103 14.9582L14.4587 16.5098L18.4487 20.4998L14.4587 24.4898L16.0103 26.0415ZM20.0003 31.5832C18.4671 31.5832 17.0263 31.292 15.6778 30.7098C14.3294 30.1283 13.1564 29.3388 12.1589 28.3413C11.1614 27.3438 10.3719 26.1708 9.79036 24.8223C9.20811 23.4739 8.91699 22.033 8.91699 20.4998C8.91699 18.9666 9.20811 17.5258 9.79036 16.1773C10.3719 14.8289 11.1614 13.6559 12.1589 12.6584C13.1564 11.6609 14.3294 10.871 15.6778 10.2888C17.0263 9.70726 18.4671 9.4165 20.0003 9.4165C21.5335 9.4165 22.9744 9.70726 24.3228 10.2888C25.6713 10.871 26.8443 11.6609 27.8418 12.6584C28.8393 13.6559 29.6288 14.8289 30.2103 16.1773C30.7925 17.5258 31.0837 18.9666 31.0837 20.4998C31.0837 22.033 30.7925 23.4739 30.2103 24.8223C29.6288 26.1708 28.8393 27.3438 27.8418 28.3413C26.8443 29.3388 25.6713 30.1283 24.3228 30.7098C22.9744 31.292 21.5335 31.5832 20.0003 31.5832Z" fill="#F04248"/>
</g>
</svg>
