<svg width="40" height="41" viewBox="0 0 40 41" fill="none" xmlns="http://www.w3.org/2000/svg">
<circle cx="20" cy="20.5" r="20" fill="#2FCB58" fill-opacity="0.16"/>
<path d="M19.9988 9.38831C13.8766 9.38831 8.8877 14.3772 8.8877 20.4994C8.8877 26.6216 13.8766 31.6105 19.9988 31.6105C26.121 31.6105 31.1099 26.6216 31.1099 20.4994C31.1099 14.3772 26.121 9.38831 19.9988 9.38831ZM25.3099 17.9439L19.0099 24.2439C18.8544 24.3994 18.6433 24.4883 18.421 24.4883C18.1988 24.4883 17.9877 24.3994 17.8321 24.2439L14.6877 21.0994C14.3655 20.7772 14.3655 20.2439 14.6877 19.9216C15.0099 19.5994 15.5433 19.5994 15.8655 19.9216L18.421 22.4772L24.1321 16.7661C24.4544 16.4439 24.9877 16.4439 25.3099 16.7661C25.6321 17.0883 25.6321 17.6105 25.3099 17.9439Z" fill="#34C759"/>
</svg>
