<svg width="56" height="57" viewBox="0 0 56 57" fill="none" xmlns="http://www.w3.org/2000/svg">
<rect y="0.5" width="56" height="56" rx="28" fill="#F57C00"/>
<path d="M28 22.7784C28.2254 22.7784 28.4412 22.868 28.6006 23.0274C28.76 23.1868 28.8496 23.4026 28.8496 23.628V32.628C28.8496 32.8535 28.76 33.0692 28.6006 33.2286C28.4412 33.388 28.2254 33.4776 28 33.4776C27.7746 33.4776 27.5588 33.388 27.3994 33.2286C27.24 33.0692 27.1504 32.8535 27.1504 32.628V23.628C27.1504 23.4026 27.24 23.1868 27.3994 23.0274C27.5588 22.868 27.7746 22.7784 28 22.7784Z" fill="white" stroke="white" stroke-width="0.2"/>
<path d="M27.9985 34.7544C28.468 34.7544 28.8481 35.1346 28.8481 35.604C28.8481 36.0734 28.468 36.4536 27.9985 36.4536C27.5291 36.4536 27.1489 36.0734 27.1489 35.604C27.1489 35.1346 27.5291 34.7544 27.9985 34.7544Z" fill="white" stroke="white" stroke-width="0.2"/>
<path d="M28.0215 15.0005C28.7283 15.0005 29.4219 15.1952 30.0254 15.563C30.6287 15.9308 31.1195 16.4574 31.4434 17.0854L41.3867 36.3892C41.6888 36.9761 41.8345 37.6309 41.8105 38.2905C41.7866 38.9501 41.5937 39.5923 41.25 40.1558C40.9062 40.7193 40.4232 41.1852 39.8477 41.5083C39.2721 41.8313 38.6229 42.0015 37.9629 42.0015H18.0781C17.4182 42.0012 16.7687 41.8305 16.1934 41.5073C15.6182 41.1842 15.1355 40.719 14.792 40.1558C14.4485 39.5924 14.2554 38.9499 14.2314 38.2905C14.2076 37.631 14.3543 36.9759 14.6562 36.3892L24.5996 17.0854C24.9235 16.4574 25.4142 15.9308 26.0176 15.563C26.6212 15.1951 27.3146 15.0005 28.0215 15.0005ZM28.0205 16.6978C27.625 16.6945 27.2361 16.8013 26.8984 17.0073C26.5607 17.2134 26.2874 17.5105 26.1094 17.8638V17.8647L16.167 37.1675C15.9985 37.4951 15.9173 37.8608 15.9307 38.229C15.944 38.597 16.0515 38.9556 16.2432 39.27C16.435 39.5846 16.7052 39.8444 17.0264 40.0249C17.3475 40.2054 17.7097 40.301 18.0781 40.3013H37.9629C38.3314 40.3013 38.6942 40.2063 39.0156 40.0259C39.337 39.8455 39.6068 39.5856 39.7988 39.271C39.9908 38.9564 40.0989 38.5973 40.1123 38.229C40.1257 37.8608 40.0435 37.4951 39.875 37.1675L29.9336 17.8647L29.9326 17.8638C29.7546 17.5105 29.4812 17.2134 29.1436 17.0073C28.8061 16.8015 28.4177 16.6945 28.0225 16.6978H28.0205Z" fill="white" stroke="white" stroke-width="0.2"/>
</svg>
